<?xml version="1.0" encoding="UTF-8" standalone="no"?>
<svg
   xmlns:dc="http://purl.org/dc/elements/1.1/"
   xmlns:cc="http://creativecommons.org/ns#"
   xmlns:rdf="http://www.w3.org/1999/02/22-rdf-syntax-ns#"
   xmlns:svg="http://www.w3.org/2000/svg"
   xmlns="http://www.w3.org/2000/svg"
   xmlns:sodipodi="http://sodipodi.sourceforge.net/DTD/sodipodi-0.dtd"
   xmlns:inkscape="http://www.inkscape.org/namespaces/inkscape"
   viewBox="0 0 192 108"
   version="1.1"
   id="svg82"
   sodipodi:docname="optimised.svg"
   inkscape:version="0.92.5 (2060ec1f9f, 2020-04-08)">
  <metadata
     id="metadata88">
    <rdf:RDF>
      <cc:Work
         rdf:about="">
        <dc:format>image/svg+xml</dc:format>
        <dc:type
           rdf:resource="http://purl.org/dc/dcmitype/StillImage" />
        <dc:title />
      </cc:Work>
    </rdf:RDF>
  </metadata>
  <defs
     id="defs86" />
  <sodipodi:namedview
     pagecolor="#ffffff"
     bordercolor="#666666"
     borderopacity="1"
     objecttolerance="10"
     gridtolerance="10"
     guidetolerance="10"
     inkscape:pageopacity="0"
     inkscape:pageshadow="2"
     inkscape:window-width="1320"
     inkscape:window-height="704"
     id="namedview84"
     showgrid="false"
     inkscape:zoom="3.0903185"
     inkscape:cx="-7.0470349"
     inkscape:cy="54.708993"
     inkscape:window-x="46"
     inkscape:window-y="27"
     inkscape:window-maximized="1"
     inkscape:current-layer="svg82" />
  <path
     d="m 20.788136,85.677966 3.6,-12 4,12 z"
     id="path2"
     inkscape:connector-curvature="0"
     style="fill:#00aa22" />
  <path
     d="m 24.288136,73.677966 -2,12 h -1.5 z"
     id="path4"
     inkscape:connector-curvature="0"
     style="fill:#007722" />
  <path
     d="m 27.788136,81.977966 3.6,-12 4,12 z"
     id="path6"
     inkscape:connector-curvature="0"
     style="fill:#00aa22" />
  <path
     d="m 31.288136,69.977966 -2,12 h -1.5 z"
     id="path8"
     inkscape:connector-curvature="0"
     style="fill:#007722" />
  <path
     d="m 37.588136,82.977966 3.6,-12 4,12 z"
     id="path10"
     inkscape:connector-curvature="0"
     style="fill:#00aa22" />
  <path
     d="m 41.088136,70.977966 -2,12 h -1.5 z"
     id="path12"
     inkscape:connector-curvature="0"
     style="fill:#007722" />
  <path
     d="m 32.088136,87.177966 3.6,-12 4,12 z"
     id="path14"
     inkscape:connector-curvature="0"
     style="fill:#00aa22" />
  <path
     d="m 35.588136,75.177966 -2,12 h -1.5 z"
     id="path16"
     inkscape:connector-curvature="0"
     style="fill:#007722" />
  <path
     d="m 199.18814,20.477966 -30,70 h 60 z"
     id="path18"
     inkscape:connector-curvature="0"
     style="fill:#663366" />
  <path
     d="m 169.18814,90.477966 30,-70 -20,70 z"
     id="path20"
     inkscape:connector-curvature="0"
     style="fill:#441144" />
  <path
     d="m 56.525425,47.603389 -30,70.000011 h 60.000002 z"
     id="path22"
     inkscape:connector-curvature="0"
     style="fill:#663366" />
  <path
     d="m 26.525425,117.60339 30,-70.000001 -20,70.000001 z"
     id="path24"
     inkscape:connector-curvature="0"
     style="fill:#441144" />
  <path
     d="m 170.48814,40.077966 -30,70.000004 h 60 z"
     id="path26"
     inkscape:connector-curvature="0"
     style="fill:#663366" />
  <path
     d="m 140.48814,110.07797 30,-70.000004 -20,70.000004 z"
     id="path28"
     inkscape:connector-curvature="0"
     style="fill:#441144" />
  <path
     d="m 151.48814,32.977966 -30,70.000004 h 60 z"
     id="path30"
     inkscape:connector-curvature="0"
     style="fill:#663366" />
  <path
     d="m 121.48814,102.97797 30,-70.000004 -20,70.000004 z"
     id="path32"
     inkscape:connector-curvature="0"
     style="fill:#441144" />
  <path
     d="M 34.788136,37.677966 4.7881356,107.67797 H 64.788136 Z"
     id="path34"
     inkscape:connector-curvature="0"
     style="fill:#663366" />
  <path
     d="m 4.7881356,107.67797 30.0000004,-70.000004 -20,70.000004 z"
     id="path36"
     inkscape:connector-curvature="0"
     style="fill:#441144" />
  <path
     d="m 16.288136,24.577966 -30,70 h 60 z"
     id="path38"
     inkscape:connector-curvature="0"
     style="fill:#663366" />
  <path
     d="m -13.611864,94.577966 30,-70 -20.0000004,70 z"
     id="path40"
     inkscape:connector-curvature="0"
     style="fill:#441144" />
  <path
     d="m -4.0847458,69.79322 c 0,0 88.0000008,-14.2 124.0000058,39.2 H -4.0847458 Z"
     id="path42"
     inkscape:connector-curvature="0"
     style="fill:#77bb33" />
  <path
     d="m 208.28814,71.377966 c 0,0 -89,-21.4 -135.000004,36.300004 69.000004,0.4 101.800004,3 134.400004,3 z"
     id="path44"
     inkscape:connector-curvature="0"
     style="fill:#77dd33" />
  <path
     d="m 167.38814,76.677966 3.5,-12 3.6,12 z"
     id="path46"
     inkscape:connector-curvature="0"
     style="fill:#00aa22" />
  <path
     d="m 170.88814,64.677966 -2,12 h -1.5 z"
     id="path48"
     inkscape:connector-curvature="0"
     style="fill:#007722" />
  <path
     d="m 159.38814,76.677966 3.5,-12 3.6,12 z"
     id="path50"
     inkscape:connector-curvature="0"
     style="fill:#00aa22" />
  <path
     d="m 162.98814,64.677966 -2,12 h -1.5 z"
     id="path52"
     inkscape:connector-curvature="0"
     style="fill:#007722" />
  <path
     d="m 163.28814,84.977966 3.5,-12 3.6,12 z"
     id="path54"
     inkscape:connector-curvature="0"
     style="fill:#00aa22" />
  <path
     d="m 166.78814,72.977966 -2,12 h -1.5 z"
     id="path56"
     inkscape:connector-curvature="0"
     style="fill:#007722" />
  <path
     d="m 171.28814,81.977966 3.5,-12 3.6,12 z"
     id="path58"
     inkscape:connector-curvature="0"
     style="fill:#00aa22" />
  <path
     d="m 174.78814,69.977966 -2,12 h -1.5 z"
     id="path60"
     inkscape:connector-curvature="0"
     style="fill:#007722" />
  <path
     d="m 58.09255,79.031934 3.5,-12 3.6,12 z"
     id="path62"
     inkscape:connector-curvature="0"
     style="fill:#00aa22" />
  <path
     d="m 61.59255,67.031934 -2,12 h -1.5 z"
     id="path64"
     inkscape:connector-curvature="0"
     style="fill:#007722" />
  <path
     d="m 18.688136,69.977966 3.5,-12 3.6,12 z"
     id="path66"
     inkscape:connector-curvature="0"
     style="fill:#00aa22" />
  <path
     d="m 22.288136,57.977966 -2,12 h -1.5 z"
     id="path68"
     inkscape:connector-curvature="0"
     style="fill:#007722" />
  <path
     d="m 28.288136,71.077966 3.5,-12 3.6,12 z"
     id="path70"
     inkscape:connector-curvature="0"
     style="fill:#00aa22" />
  <path
     d="m 31.788136,59.077966 -2,12 h -1.5 z"
     id="path72"
     inkscape:connector-curvature="0"
     style="fill:#007722" />
  <path
     d="m 23.288136,75.677966 3.5,-12 3.6,12 z"
     id="path74"
     inkscape:connector-curvature="0"
     style="fill:#00aa22" />
  <path
     d="m 26.788136,63.677966 -2,12 h -1.5 z"
     id="path76"
     inkscape:connector-curvature="0"
     style="fill:#007722" />
  <path
     d="m 13.288136,72.877966 3.5,-12 3.6,12 z"
     id="path78"
     inkscape:connector-curvature="0"
     style="fill:#00aa22" />
  <path
     d="m 16.788136,60.877966 -2,12 h -1.5 z"
     id="path80"
     inkscape:connector-curvature="0"
     style="fill:#007722" />
  <ellipse
     style="fill:#ffcc00"
     id="path47"
     cx="123.78814"
     cy="46.677967"
     rx="11.211864"
     ry="11.898305" />
</svg>
